<?xml version="1.0" standalone="no"?>
<!DOCTYPE svg PUBLIC "-//W3C//DTD SVG 20010904//EN"
 "http://www.w3.org/TR/2001/REC-SVG-20010904/DTD/svg10.dtd">
<svg version="1.0" xmlns="http://www.w3.org/2000/svg"
 width="512.000000pt" height="512.000000pt" viewBox="0 0 512.000000 512.000000"
 preserveAspectRatio="xMidYMid meet">
<metadata>
Created by potrace 1.11, written by Peter Selinger 2001-2013
</metadata>
<g transform="translate(0.000000,512.000000) scale(0.100000,-0.100000)"
fill="#000000" stroke="none">
<path d="M964 5111 c-3 -3 -17 -6 -32 -7 -15 -1 -43 -5 -62 -9 -19 -4 -48 -8
-65 -10 -16 -1 -37 -6 -46 -9 -9 -4 -20 -6 -25 -5 -5 1 -12 0 -16 -1 -14 -5
-23 -6 -83 -14 -32 -4 -66 -9 -75 -11 -8 -1 -35 -6 -60 -11 -25 -4 -48 -9 -52
-10 -5 -1 -13 -2 -19 -3 -6 0 -8 -12 -5 -28 9 -40 22 -107 31 -158 3 -16 8
-37 10 -45 2 -8 7 -31 10 -50 3 -19 13 -69 22 -110 8 -41 17 -86 20 -100 2
-14 10 -56 18 -95 8 -38 16 -81 19 -95 7 -40 38 -194 40 -205 3 -13 16 -75 20
-95 2 -8 6 -31 10 -50 4 -19 8 -42 10 -50 2 -8 6 -31 10 -50 4 -19 9 -44 11
-55 2 -11 4 -20 5 -20 1 0 3 -11 5 -25 4 -26 7 -45 24 -125 6 -27 14 -66 16
-85 3 -19 10 -51 15 -70 5 -19 12 -51 14 -70 5 -33 8 -50 21 -110 3 -14 10
-47 15 -75 9 -49 15 -78 25 -132 3 -16 8 -39 11 -53 3 -14 7 -33 10 -43 3 -10
8 -34 10 -54 3 -20 7 -39 9 -43 3 -5 7 -27 10 -50 3 -24 7 -46 9 -49 3 -4 7
-26 11 -51 4 -25 8 -47 10 -50 2 -3 6 -25 10 -50 4 -25 9 -48 11 -51 2 -4 6
-26 9 -49 3 -24 8 -46 10 -50 3 -5 7 -27 10 -50 3 -24 7 -46 9 -49 3 -4 7 -26
11 -51 4 -25 8 -47 10 -50 2 -4 7 -29 11 -56 3 -27 8 -52 11 -56 2 -5 6 -27 9
-50 2 -24 7 -50 10 -58 3 -8 8 -26 11 -40 14 -71 34 -177 37 -195 2 -11 13
-67 25 -125 12 -58 23 -116 26 -130 3 -14 8 -38 12 -55 7 -30 7 -35 16 -92 3
-18 8 -40 11 -50 3 -10 8 -31 11 -48 6 -34 12 -69 20 -105 3 -14 7 -36 10 -50
3 -14 8 -38 12 -55 4 -16 7 -34 8 -40 2 -17 16 -88 27 -140 7 -27 12 -57 13
-65 3 -29 37 -195 42 -210 4 -8 5 -18 5 -22 -4 -15 31 -158 38 -158 9 0 98
-88 94 -93 -2 -1 10 -11 27 -22 16 -11 29 -26 29 -32 0 -7 6 -13 13 -13 6 -1
26 -19 42 -40 17 -21 33 -39 37 -40 10 0 68 -60 68 -71 0 -5 7 -9 15 -9 8 0
15 -3 15 -8 0 -7 30 -40 72 -79 26 -23 37 -24 318 -38 103 -5 183 -10 330 -20
52 -4 129 -9 170 -11 41 -2 120 -7 175 -10 55 -3 129 -8 165 -9 36 -2 65 -4
65 -5 0 0 34 -3 75 -5 41 -2 118 -7 170 -11 52 -3 122 -6 154 -7 l59 -1 40
144 c21 80 42 152 45 160 3 8 6 20 7 25 2 6 8 30 16 55 7 25 13 50 15 55 4 20
36 130 41 145 3 8 7 22 9 30 5 25 12 55 14 55 1 0 3 7 5 15 1 8 11 42 21 75
21 71 21 72 29 109 3 16 8 33 11 38 3 4 7 16 9 25 6 23 50 183 70 253 9 30 18
69 21 85 3 17 11 36 16 43 6 6 8 12 4 12 -3 0 -1 12 5 28 6 15 12 35 14 44 4
21 171 616 190 678 11 38 22 77 43 150 2 8 4 23 5 33 1 9 6 17 11 17 5 0 7 3
3 6 -3 3 1 23 8 45 8 21 12 39 9 39 -2 0 0 8 5 18 6 11 12 30 15 43 3 13 13
49 22 79 9 30 20 71 25 90 5 19 11 42 14 50 2 8 17 62 33 120 17 58 32 112 36
120 3 8 8 26 10 40 3 14 12 50 21 80 9 30 17 62 20 70 2 8 8 27 14 43 6 15 8
27 5 27 -4 0 -1 7 6 15 7 8 10 15 6 15 -3 0 -1 12 5 28 6 15 12 35 14 44 7 31
46 172 65 233 11 33 22 71 24 85 3 14 5 25 6 25 1 0 3 7 5 15 2 8 11 40 19 70
9 30 18 62 20 70 6 24 32 118 66 235 17 61 33 117 35 125 11 44 66 239 74 265
5 17 15 50 22 75 7 25 13 47 14 50 1 3 5 22 9 42 8 39 6 55 -6 51 -5 -2 -8 4
-8 12 0 8 -7 15 -15 15 -8 0 -15 7 -15 15 0 8 -7 15 -16 15 -8 0 -12 5 -9 10
3 6 -1 10 -9 10 -9 0 -16 7 -16 15 0 8 -7 15 -16 15 -10 0 -14 6 -10 15 4 10
-1 15 -14 15 -11 0 -20 5 -20 10 0 6 -9 19 -20 30 -11 11 -20 18 -20 15 0 -3
-8 3 -19 13 -10 9 -18 21 -17 27 1 5 -5 9 -11 10 -7 0 -13 3 -13 8 0 11 -38
47 -50 47 -5 0 -10 5 -10 10 0 6 -9 19 -20 30 -11 11 -20 18 -20 15 0 -3 -9 4
-20 15 -11 11 -20 24 -20 30 0 5 -5 9 -12 7 -7 -1 -12 5 -13 13 0 9 -10 15
-25 16 -14 1 -44 4 -65 9 -22 4 -56 9 -75 11 -19 2 -46 6 -59 9 -14 2 -47 7
-75 10 -28 3 -70 10 -93 16 -24 5 -46 9 -50 8 -5 -1 -10 -1 -13 0 -3 1 -21 4
-40 6 -48 6 -95 13 -95 15 0 5 -95 8 -96 2 -1 -11 -5 -30 -24 -107 -9 -38 -18
-79 -21 -90 -2 -11 -11 -47 -19 -80 -9 -33 -18 -71 -20 -85 -4 -21 -12 -51
-20 -80 -4 -14 -16 -68 -19 -86 -2 -11 -9 -38 -15 -60 -22 -84 -40 -160 -45
-184 -2 -14 -14 -67 -26 -117 -24 -101 -18 -95 -97 -96 -18 -1 -33 -3 -33 -6
0 -4 -19 -6 -42 -7 -43 0 -167 -9 -288 -19 -36 -4 -85 -8 -110 -10 -25 -2 -45
-4 -45 -5 0 0 -31 -3 -70 -6 -68 -4 -117 -8 -240 -19 -33 -3 -88 -6 -122 -8
-35 -1 -63 -4 -63 -7 0 -3 -19 -5 -43 -6 -43 -1 -189 -11 -263 -19 -23 -2 -76
-6 -118 -9 l-76 -6 -14 33 c-31 71 -48 111 -140 332 -53 127 -101 238 -106
247 -6 10 -10 23 -10 30 0 17 -50 74 -61 70 -5 -1 -9 2 -9 8 0 5 -88 97 -196
205 -173 172 -200 195 -226 193 -16 -1 -31 -5 -34 -7z m1651 -1935 c552 -6
504 -4 500 -23 -2 -10 -4 -19 -5 -20 -3 -3 -3 -3 -15 -58 -4 -22 -9 -44 -10
-50 -2 -5 -10 -39 -19 -75 -9 -36 -18 -74 -20 -86 -2 -11 -12 -51 -21 -88 -9
-37 -18 -75 -20 -84 -2 -9 -4 -17 -5 -17 -1 0 -3 -8 -5 -19 -2 -10 -9 -39 -15
-65 -6 -25 -12 -55 -15 -66 -2 -11 -8 -35 -14 -52 -5 -18 -7 -33 -4 -33 3 0 0
-7 -7 -15 -7 -8 -10 -15 -7 -15 4 0 -7 -53 -27 -130 -5 -18 -26 -109 -31 -131
-2 -9 -15 -65 -30 -125 -14 -60 -28 -118 -31 -129 -2 -11 -6 -30 -9 -42 -3
-13 -7 -34 -10 -48 -3 -13 -10 -37 -16 -52 -6 -16 -10 -30 -10 -33 2 -10 -12
-75 -17 -84 -5 -8 -42 59 -42 76 0 4 -13 37 -30 73 -16 36 -30 68 -30 71 0 3
-6 20 -14 37 -21 45 -49 111 -51 120 -2 4 -4 9 -5 12 -1 3 -3 8 -5 13 -1 4 -7
19 -13 35 -7 15 -17 39 -24 55 -6 15 -11 30 -10 34 1 3 -5 11 -13 18 -7 6 -11
18 -8 26 3 8 0 14 -6 14 -6 0 -11 8 -11 18 0 10 -7 28 -16 40 -8 12 -12 22 -9
22 3 0 0 10 -7 23 -7 12 -13 24 -13 27 -1 3 -7 18 -13 33 -7 16 -12 30 -12 31
0 2 -10 25 -22 52 -12 27 -23 52 -24 57 -1 4 -3 10 -4 15 -1 4 -2 10 -1 15 0
4 -3 7 -9 7 -5 0 -10 7 -10 15 0 8 -13 42 -29 75 -16 33 -28 60 -25 60 3 0
-13 40 -51 125 -41 93 -102 243 -104 258 0 4 -10 24 -21 45 l-20 37 27 5 c14
3 58 4 97 2 39 -2 215 -5 391 -6z"/>
</g>
</svg>
