<svg version="1" xmlns="http://www.w3.org/2000/svg" width="682.667" height="682.667" viewBox="0 0 512 512"><path d="M189.5 56.8c-.3.3-.5 15.3-.5 33.4V123h-66.7l-.1 30.7c0 17-.1 32-.1 33.4l-.1 2.6H89.3l-32.8-.1v266.9H84v28h133l.1-2.5c0-1.4 0-16.3.1-33.3V418H322l.1 2.2c.1 1.3.2 9.9.2 19.3l.2 17h13.2c7.2 0 13.4.3 13.8.7.4.4.8 6.7.9 14l.1 13.3h133l.1-133.3.1-133.2-2.6-.1c-1.4-.1-7.7-.1-13.8-.1-9.7 0-11.3-.3-11.4-1.7 0-.9-.1-7.1-.1-13.9l-.1-12.2-3.1-.1c-1.7 0-10.3-.2-19.1-.2l-16-.2-.2-13.5c-.1-7.4-.2-16.1-.2-19.3l-.1-5.7h-27.9l.1-11.8c0-6.4 0-12.7-.1-14l-.1-2.2h-19c-14.5 0-19-.3-19.1-1.3-.1-.6-.3-8.9-.4-18.2-.1-9.4-.3-17.5-.4-18.1-.1-.8-3.9-1.2-11.8-1.2-6.5 0-12.7 0-13.8-.1-1.9-.1-2-.8-2-12.9.1-7 0-13.2-.2-13.8-.3-.8-19.8-1.1-66.3-1.1-36.3 0-66.2.2-66.5.5zm132.8 212.5c-.1 28.1-.2 51.8-.2 52.4-.1 1-11.3 1.3-52.5 1.3h-52.4V218h105.3l-.2 51.3z"/></svg>