<?xml version="1.0" standalone="no"?>
<!DOCTYPE svg PUBLIC "-//W3C//DTD SVG 20010904//EN"
 "http://www.w3.org/TR/2001/REC-SVG-20010904/DTD/svg10.dtd">
<svg version="1.0" xmlns="http://www.w3.org/2000/svg"
 width="645.000000pt" height="645.000000pt" viewBox="0 0 645.000000 645.000000"
 preserveAspectRatio="xMidYMid meet">
<metadata>
Created by potrace 1.11, written by Peter Selinger 2001-2013
</metadata>
<g transform="translate(0.000000,645.000000) scale(0.100000,-0.100000)"
fill="#000000" stroke="none">
<path d="M3161 5874 c-1 -7 -8 -15 -17 -18 -8 -3 -12 -2 -9 4 3 6 -1 10 -10
10 -9 0 -13 -5 -9 -11 4 -7 -1 -7 -16 1 -19 10 -22 10 -17 -2 3 -8 -1 -15 -9
-15 -7 0 -11 4 -8 9 3 4 -6 8 -20 8 -14 0 -26 -6 -27 -12 0 -7 -4 -4 -9 7 -8
18 -9 18 -9 2 -1 -10 -6 -15 -11 -12 -6 4 -8 12 -4 18 3 7 -1 4 -9 -5 -14 -18
-33 -26 -24 -10 3 4 -6 8 -19 8 -13 1 -21 -2 -18 -7 3 -5 -10 -8 -28 -8 -81 3
-98 0 -92 -18 5 -17 5 -17 -6 0 -12 19 -35 13 -24 -6 5 -8 3 -8 -7 1 -19 17
-29 15 -22 -5 5 -15 3 -14 -10 2 -9 11 -17 15 -17 8 0 -7 -7 -10 -17 -6 -11 4
-14 3 -9 -6 9 -14 -16 -11 -26 4 -5 6 -8 5 -8 -3 0 -7 -4 -11 -8 -8 -5 3 -21
-1 -36 -9 -14 -8 -24 -10 -21 -5 10 16 -7 11 -28 -7 -11 -10 -17 -12 -13 -5 9
15 -20 17 -29 2 -3 -5 -11 -10 -16 -10 -6 0 -7 4 -4 10 3 6 -1 7 -9 4 -9 -3
-13 -11 -10 -16 4 -6 1 -9 -7 -6 -8 3 -20 -2 -27 -11 -8 -9 -11 -10 -7 -3 4 7
0 12 -9 12 -9 0 -16 -4 -16 -10 0 -5 -5 -10 -11 -10 -5 0 -7 5 -3 12 5 7 3 8
-5 4 -7 -5 -10 -15 -6 -23 5 -13 3 -14 -11 -3 -10 9 -18 10 -22 3 -4 -5 -15
-9 -24 -7 -10 1 -18 -1 -18 -6 0 -4 -7 -11 -16 -14 -10 -4 -13 -2 -8 7 6 8 3
8 -9 -1 -9 -8 -21 -11 -27 -7 -5 3 -10 -2 -10 -12 0 -15 -2 -16 -10 -3 -9 13
-10 13 -10 0 0 -13 -1 -13 -10 0 -8 12 -10 10 -11 -10 0 -22 -1 -23 -8 -6 -7
18 -8 18 -14 2 -4 -11 -13 -16 -22 -12 -8 3 -15 1 -15 -3 0 -5 -7 -12 -16 -15
-12 -5 -14 -3 -8 7 5 7 1 5 -8 -5 -12 -13 -19 -15 -24 -7 -5 9 -10 8 -18 -2
-16 -20 -51 -47 -42 -31 12 19 -8 14 -23 -7 -9 -12 -21 -17 -34 -13 -13 3 -18
1 -13 -6 5 -8 1 -10 -10 -5 -14 5 -16 3 -11 -10 6 -15 4 -16 -16 -6 -19 11
-20 10 -9 -3 10 -13 9 -15 -13 -13 -14 2 -25 -1 -25 -6 0 -5 -6 -8 -12 -6 -7
1 -12 -4 -10 -11 2 -9 -4 -12 -17 -7 -11 3 -22 1 -26 -5 -3 -6 -11 -8 -16 -5
-5 4 -6 -2 -2 -12 3 -10 2 -15 -2 -10 -5 4 -17 -1 -28 -10 -11 -10 -17 -12
-13 -6 5 9 2 11 -8 7 -9 -3 -13 -11 -9 -17 4 -6 0 -8 -10 -4 -10 3 -17 3 -17
-2 0 -5 -11 -12 -25 -15 -14 -4 -25 -11 -25 -17 0 -7 6 -6 18 2 15 13 16 12 3
-3 -7 -10 -18 -15 -23 -12 -5 3 -16 -2 -24 -12 -9 -11 -12 -13 -9 -5 5 9 -1 8
-19 -4 -14 -10 -26 -21 -26 -25 0 -4 -11 -11 -25 -14 -14 -4 -23 -11 -20 -16
3 -5 1 -11 -5 -15 -5 -3 -10 -1 -10 6 0 7 -15 -4 -33 -24 -18 -20 -41 -37 -50
-37 -10 0 -16 -4 -13 -8 2 -4 -4 -14 -16 -21 -15 -9 -18 -10 -13 0 6 8 4 10
-4 5 -7 -5 -10 -14 -7 -22 3 -8 2 -13 -2 -12 -14 4 -52 -14 -47 -22 3 -5 1
-11 -5 -15 -5 -3 -10 0 -10 7 0 8 -5 6 -11 -5 -5 -9 -8 -21 -5 -26 4 -5 -3 -7
-13 -4 -13 3 -23 -3 -32 -19 -7 -12 -12 -25 -12 -28 1 -3 -1 -7 -4 -10 -4 -3
-3 1 2 9 5 9 3 12 -6 9 -8 -3 -13 -11 -11 -17 1 -6 -8 -11 -19 -11 -18 0 -19
-2 -9 -15 11 -13 10 -14 -5 -9 -14 6 -16 4 -10 -6 6 -10 3 -12 -14 -7 -18 4
-20 3 -10 -9 11 -13 6 -18 -15 -15 -5 1 -6 -5 -2 -14 3 -9 2 -14 -3 -10 -15 9
-42 -7 -37 -21 3 -8 1 -14 -4 -14 -6 0 -10 -8 -11 -17 0 -11 -3 -13 -6 -6 -3
10 -8 10 -19 -1 -17 -17 -19 -30 -2 -20 7 5 8 3 4 -5 -5 -7 -15 -10 -24 -6 -9
3 -13 3 -9 -1 3 -4 -3 -15 -14 -25 -12 -10 -18 -23 -13 -30 5 -8 3 -9 -6 -4
-10 6 -12 4 -6 -10 6 -16 4 -16 -11 -4 -11 9 -14 10 -9 1 4 -7 1 -15 -8 -18
-9 -3 -13 -10 -10 -15 3 -5 10 -6 16 -3 7 4 8 2 4 -4 -4 -6 -13 -9 -21 -5 -8
3 -15 0 -15 -7 0 -6 -5 -8 -12 -4 -8 5 -7 0 2 -11 13 -16 13 -18 0 -13 -18 6
-54 -48 -44 -64 4 -6 3 -8 -4 -4 -14 9 -42 -21 -42 -45 0 -11 -4 -18 -9 -15
-5 3 -12 -6 -15 -19 -4 -14 -11 -23 -16 -20 -14 9 -12 -9 3 -24 7 -9 8 -12 0
-7 -6 3 -18 3 -27 0 -14 -5 -14 -9 -4 -22 11 -13 11 -14 -1 -7 -11 6 -13 4 -8
-8 3 -9 3 -16 -1 -16 -19 3 -23 -2 -12 -16 11 -13 10 -14 -3 -10 -8 4 -18 1
-23 -6 -5 -8 -3 -10 7 -5 8 4 5 0 -6 -9 -11 -9 -19 -23 -17 -32 2 -10 -1 -12
-10 -7 -9 5 -8 2 2 -11 8 -10 10 -16 4 -12 -7 4 -18 -1 -25 -10 -8 -9 -9 -14
-4 -11 6 4 11 -1 11 -11 0 -10 -6 -18 -13 -18 -7 0 -9 5 -6 10 3 6 1 7 -6 3
-6 -4 -8 -13 -4 -19 10 -17 13 -38 4 -32 -5 2 -19 -7 -31 -20 -13 -14 -20 -25
-16 -25 5 0 2 -8 -5 -17 -13 -16 -12 -17 3 -4 10 7 15 18 11 24 -3 6 -1 7 6 3
12 -8 1 -29 -21 -46 -4 -3 -8 -20 -10 -37 -1 -21 -6 -29 -15 -26 -9 4 -11 0
-6 -13 5 -13 3 -15 -8 -9 -12 8 -12 6 0 -8 12 -15 11 -17 -2 -17 -9 0 -19 -5
-23 -12 -4 -6 -3 -8 3 -5 6 4 13 -2 16 -12 3 -15 1 -18 -11 -14 -10 4 -13 2
-8 -5 4 -7 2 -12 -4 -12 -6 0 -8 -4 -5 -10 3 -5 0 -10 -7 -10 -8 0 -9 -3 -3
-8 13 -9 13 -27 1 -39 -5 -4 -6 -3 -2 4 3 6 2 14 -3 18 -6 3 -8 -6 -5 -21 3
-19 1 -24 -8 -18 -10 6 -10 5 0 -8 10 -13 10 -18 1 -24 -8 -5 -9 -3 -4 6 5 8
4 11 -3 7 -14 -9 -8 -43 8 -39 6 1 9 -2 5 -8 -3 -6 -10 -8 -15 -5 -4 3 -11 -3
-14 -12 -4 -9 -1 -20 6 -25 10 -6 9 -8 -4 -8 -9 0 -20 -5 -24 -12 -5 -7 -2 -9
9 -5 11 4 14 2 10 -8 -3 -8 -9 -12 -14 -9 -5 3 -6 -3 -2 -12 5 -13 3 -15 -8
-9 -10 7 -9 2 3 -17 13 -19 15 -29 6 -34 -7 -4 -8 -3 -4 4 4 7 2 12 -3 12 -6
0 -11 -6 -12 -12 0 -7 -2 -22 -4 -33 -2 -10 1 -25 6 -31 7 -8 6 -15 -2 -20 -8
-5 -9 -3 -4 7 7 11 6 12 -6 2 -9 -7 -15 -23 -14 -35 1 -13 -2 -31 -6 -40 -11
-21 -1 -50 15 -42 6 3 2 -2 -8 -10 -20 -16 -20 -16 0 -17 16 0 16 -2 -4 -10
-19 -7 -23 -29 -6 -29 3 0 2 4 -1 10 -4 6 1 7 11 3 14 -5 13 -8 -7 -19 -22
-12 -19 -19 5 -15 5 1 4 -5 -3 -13 -7 -9 -18 -13 -24 -9 -6 3 -7 1 -3 -6 4 -6
13 -8 19 -4 7 4 4 -5 -5 -19 -16 -24 -16 -28 -2 -42 8 -9 11 -16 5 -16 -15 0
-14 -27 2 -33 7 -3 5 -6 -5 -6 -11 -1 -15 -6 -12 -16 4 -8 9 -13 13 -11 4 3 7
-8 6 -24 0 -15 -4 -26 -8 -23 -5 3 -6 11 -4 17 3 7 -1 13 -8 13 -10 0 -11 -5
-4 -18 11 -22 12 -52 1 -45 -5 3 -9 -1 -9 -8 0 -7 6 -13 13 -13 7 0 10 5 7 10
-4 6 -1 7 6 2 9 -5 6 -14 -11 -33 -13 -14 -18 -22 -11 -18 6 3 14 2 18 -4 4
-6 11 -7 17 -4 7 4 8 2 4 -5 -4 -6 -11 -9 -16 -6 -10 6 -19 -16 -13 -33 3 -6
10 -9 16 -6 8 5 8 2 0 -7 -18 -19 -16 -32 5 -25 15 5 15 5 1 -6 -15 -13 -22
-68 -8 -68 4 0 9 -7 12 -14 4 -11 1 -13 -11 -10 -16 5 -16 4 0 -9 10 -8 15
-17 11 -20 -3 -4 -7 -20 -7 -36 -1 -24 1 -27 13 -18 11 9 13 9 8 0 -4 -6 -1
-14 5 -16 8 -3 6 -6 -5 -6 -10 -1 -15 -6 -12 -11 4 -6 10 -8 14 -6 9 6 8 -25
-2 -41 -4 -6 -2 -15 4 -19 8 -5 9 -3 4 6 -5 9 -4 11 3 6 17 -10 15 -24 -5 -29
-15 -4 -16 -5 -2 -6 9 0 19 -10 22 -20 3 -15 1 -18 -12 -14 -9 3 -6 -3 8 -15
23 -19 23 -20 5 -30 -16 -10 -16 -11 -3 -12 9 0 20 -7 23 -16 6 -15 4 -15 -10
-3 -16 13 -16 12 -6 -7 6 -12 9 -24 5 -27 -3 -4 2 -10 12 -14 18 -6 18 -7 -1
-14 -18 -7 -18 -8 1 -8 17 -1 17 -3 5 -11 -11 -7 -11 -10 -2 -10 7 0 10 -5 6
-12 -4 -6 -3 -8 3 -5 6 4 14 0 17 -9 3 -8 2 -12 -4 -9 -6 3 -10 1 -10 -4 0 -6
3 -11 8 -11 4 0 13 -10 21 -23 13 -20 13 -21 -2 -9 -12 10 -17 10 -23 1 -4 -7
-3 -10 2 -7 5 3 15 0 21 -7 10 -11 9 -15 -5 -18 -16 -4 -16 -5 1 -6 11 -1 17
-9 17 -26 0 -17 6 -25 18 -25 15 0 15 -2 2 -10 -13 -9 -13 -12 3 -24 14 -11
15 -15 5 -19 -10 -4 -10 -6 0 -6 6 -1 12 -8 12 -17 0 -9 5 -12 13 -8 7 5 6 0
-3 -11 -11 -14 -12 -17 -1 -10 11 6 13 1 9 -23 -4 -26 -2 -29 9 -20 11 9 13 8
11 -3 -2 -8 2 -13 8 -12 10 2 14 -10 15 -50 0 -12 5 -17 14 -13 11 4 12 0 5
-19 -7 -19 -6 -23 4 -19 18 7 30 -12 15 -22 -8 -5 -9 -3 -4 6 6 9 4 11 -5 5
-10 -6 -9 -11 5 -21 10 -7 22 -11 26 -8 5 3 9 0 9 -6 0 -7 -9 -9 -22 -5 -23 7
-23 7 -3 -8 11 -8 24 -13 30 -10 5 3 4 0 -3 -8 -10 -11 -8 -16 10 -27 13 -8
15 -11 6 -8 -26 8 -22 -1 10 -19 15 -9 19 -14 10 -11 -27 8 -22 -1 10 -19 15
-8 20 -14 12 -13 -9 2 -16 -1 -16 -7 0 -5 7 -8 15 -7 13 3 13 1 1 -13 -11 -14
-11 -16 1 -13 8 2 13 -3 11 -11 -3 -12 0 -12 12 -2 12 10 14 9 9 -8 -3 -13 -1
-21 6 -21 7 0 9 -5 6 -10 -3 -5 -1 -10 4 -10 6 0 11 5 11 12 0 6 3 8 6 5 4 -4
1 -13 -6 -22 -10 -12 -9 -15 6 -16 11 -1 23 -1 27 0 5 1 6 -3 2 -9 -3 -6 -11
-8 -16 -5 -5 4 -9 2 -9 -4 0 -5 9 -13 21 -16 16 -5 18 -9 8 -21 -9 -12 -9 -13
3 -9 8 3 21 -2 29 -12 13 -16 12 -17 -4 -4 -15 12 -17 12 -11 -3 3 -9 10 -16
16 -16 5 0 6 -6 2 -12 -6 -9 -3 -9 9 0 14 12 16 11 12 -8 -3 -18 -2 -20 10
-10 11 9 12 7 8 -8 -3 -14 1 -22 16 -27 12 -3 21 -15 21 -25 0 -10 5 -22 10
-25 6 -4 7 -11 4 -17 -4 -7 -2 -8 5 -4 6 4 9 13 5 19 -3 7 1 4 9 -5 8 -10 18
-14 22 -10 5 4 4 0 -1 -8 -12 -21 -14 -41 -3 -34 5 3 6 11 2 17 -3 7 3 4 14
-6 11 -9 23 -14 27 -10 4 5 6 3 4 -2 -4 -13 37 -66 45 -59 3 3 3 -3 0 -14 -3
-14 1 -22 16 -27 12 -3 19 -11 16 -16 -4 -5 1 -9 9 -9 9 0 16 -4 16 -10 0 -5
10 -10 23 -11 21 -1 21 -1 -3 -9 -24 -8 -24 -8 -2 -9 12 -1 22 -6 22 -12 0 -7
9 -9 21 -6 20 5 20 5 2 -15 -18 -20 -18 -21 2 -10 17 8 25 6 42 -12 17 -18 19
-26 10 -35 -7 -7 -7 -12 -2 -11 23 5 36 -1 29 -12 -6 -9 -3 -9 9 0 14 12 16
11 12 -8 -4 -19 -2 -20 12 -8 15 11 16 11 10 -4 -3 -10 -2 -20 3 -23 6 -4 10
-1 10 4 0 8 7 7 19 -1 11 -7 17 -16 15 -20 -3 -4 2 -8 12 -8 13 0 14 -3 5 -14
-9 -11 -6 -12 16 -8 22 4 25 2 20 -13 -6 -13 -3 -16 9 -11 11 4 18 -1 21 -15
4 -16 8 -17 14 -7 7 10 9 8 9 -6 0 -14 5 -17 21 -13 17 5 18 3 7 -10 -12 -15
-11 -15 10 -4 18 9 22 9 20 -1 -2 -7 6 -13 17 -13 11 0 20 -7 20 -15 0 -8 5
-15 10 -16 19 -1 45 -16 41 -23 -2 -3 3 -13 12 -21 14 -13 15 -12 9 2 -4 12
-2 15 8 11 8 -3 12 -9 9 -14 -3 -5 0 -9 6 -9 6 0 8 -5 4 -13 -5 -7 0 -6 11 3
17 14 18 13 12 -4 -6 -16 -5 -17 8 -6 12 10 15 9 15 -6 0 -16 2 -17 11 -4 9
12 10 10 6 -8 -5 -19 -3 -21 9 -11 10 8 14 8 14 0 0 -6 7 -11 15 -11 8 0 15
-4 15 -10 0 -5 3 -9 8 -9 20 3 40 -2 58 -17 10 -8 13 -12 5 -8 -8 4 -12 3 -8
-3 3 -5 19 -8 36 -7 25 2 29 -1 26 -20 -4 -20 -4 -21 10 -2 15 19 15 19 15 -5
1 -21 2 -22 11 -6 8 14 14 16 25 6 7 -6 12 -15 9 -19 -8 -13 14 -23 46 -22 16
0 31 -3 34 -9 3 -5 -2 -6 -12 -3 -15 5 -15 4 -3 -4 10 -8 18 -8 27 0 9 7 15 6
19 -7 5 -13 9 -14 15 -3 7 10 9 9 9 -5 0 -10 4 -15 10 -12 5 3 10 1 10 -5 0
-6 4 -8 10 -5 5 3 10 0 10 -7 0 -9 3 -9 10 2 8 12 10 12 10 1 0 -11 3 -11 15
-1 13 11 14 10 8 -6 -6 -17 -5 -18 12 -4 17 14 17 13 11 -10 -6 -21 -5 -22 4
-7 6 9 16 17 23 17 8 0 8 -3 -1 -9 -11 -7 -11 -9 2 -14 9 -4 16 1 19 11 4 14
5 14 6 1 0 -9 13 -21 28 -28 24 -11 25 -10 13 4 -11 13 -10 15 3 9 8 -3 18
-12 21 -20 4 -10 11 -11 31 -4 20 7 25 6 25 -5 0 -8 3 -15 8 -16 4 0 30 -1 57
-2 28 -1 56 -6 63 -10 6 -5 18 -5 25 -1 9 6 9 4 -1 -8 -11 -14 -10 -16 5 -13
10 1 17 8 15 15 -1 6 2 9 8 5 6 -3 8 -11 5 -16 -4 -5 3 -9 14 -9 11 0 23 -5
27 -12 5 -7 11 -5 21 7 11 17 13 17 13 2 0 -14 4 -15 26 -7 21 8 25 8 21 -3
-3 -8 1 -14 9 -14 7 0 11 4 8 9 -3 4 0 8 5 8 6 0 11 -8 12 -17 0 -11 3 -13 6
-5 2 6 11 12 19 12 9 0 13 -4 10 -9 -8 -13 19 -8 37 8 13 10 15 9 9 -11 -5
-22 -5 -22 13 -5 14 14 20 16 26 6 4 -8 24 -14 43 -15 31 -1 34 1 23 14 -9 11
-4 11 15 -2 16 -10 25 -23 21 -30 -4 -6 -1 -6 9 2 8 7 24 9 34 6 17 -6 17 -5
-1 10 -11 10 -13 14 -5 10 8 -4 23 -14 33 -22 16 -14 17 -14 12 -1 -4 10 0 16
9 16 8 0 13 -4 10 -9 -3 -4 2 -8 11 -8 9 0 14 4 11 8 -3 5 2 9 10 9 9 0 13 -6
9 -15 -4 -11 -2 -12 7 -5 23 17 47 22 54 11 5 -7 2 -8 -6 -3 -8 5 -11 4 -6 -3
4 -6 13 -9 21 -6 8 4 13 9 11 13 -3 4 4 7 14 7 15 0 17 -3 7 -15 -9 -11 -4
-11 17 3 16 10 26 14 23 10 -3 -5 2 -16 11 -24 14 -13 15 -12 9 3 -5 13 -2 16
16 13 12 -2 33 1 46 6 19 7 22 6 17 -8 -5 -13 -4 -14 7 -6 8 7 18 8 22 4 5 -4
5 2 1 12 -5 16 -4 17 9 6 8 -7 15 -9 15 -4 0 4 5 3 12 -4 15 -15 28 -15 28 -1
0 5 -6 7 -12 3 -7 -4 -10 -3 -6 1 5 5 20 9 35 11 16 1 22 0 16 -3 -21 -8 -15
-22 7 -16 11 3 17 10 14 15 -4 6 3 5 15 -1 13 -7 21 -8 21 -2 0 6 7 7 17 4 10
-4 14 -2 10 4 -3 5 1 10 9 10 9 0 13 -6 9 -16 -3 -9 4 -5 15 9 17 21 19 22 14
5 -5 -19 -5 -19 9 -2 18 22 28 22 20 0 -6 -16 -4 -16 15 1 17 14 25 16 35 7
11 -8 18 -7 31 8 14 15 23 17 48 11 22 -7 29 -6 25 3 -6 15 45 17 55 2 5 -6 8
-5 8 4 0 9 8 11 24 7 18 -4 28 -1 35 11 6 10 11 13 11 6 0 -17 28 -10 46 13 8
10 13 13 9 7 -10 -21 13 -15 37 9 15 15 20 17 15 5 -3 -9 -2 -19 3 -22 6 -4
10 1 10 10 0 11 5 15 16 11 8 -3 12 -2 9 4 -3 6 -1 10 5 10 6 0 8 6 4 13 -4 6
2 3 14 -7 12 -11 22 -15 22 -9 0 5 12 9 27 9 16 -1 28 4 28 11 0 6 3 15 8 19
4 4 7 3 7 -3 0 -5 6 -10 14 -10 8 0 12 6 9 13 -2 6 1 15 7 19 6 3 10 3 9 -2
-4 -22 3 -25 17 -7 8 10 12 12 8 4 -4 -8 4 -4 18 9 25 24 64 39 52 20 -3 -5
-10 -6 -16 -3 -7 4 -8 2 -4 -4 10 -16 12 -16 42 16 15 15 22 19 15 10 -11 -14
-10 -17 7 -15 13 1 18 6 14 17 -5 13 -4 13 13 0 17 -14 18 -14 6 9 -11 19 -11
22 0 15 8 -4 22 -9 31 -9 15 -1 16 1 6 14 -7 9 -8 13 -4 9 5 -4 16 -2 24 5 11
8 14 8 9 0 -8 -12 10 -12 31 0 6 5 16 6 21 3 5 -4 7 4 4 16 -4 19 -3 20 6 8
10 -14 15 -7 12 13 -1 4 9 2 21 -4 21 -11 22 -11 9 5 -8 9 -10 16 -5 15 20 -3
68 3 56 8 -6 2 -10 9 -7 13 3 5 13 6 22 3 12 -5 14 -3 8 8 -7 11 -5 11 10 -1
11 -9 16 -10 11 -2 -4 6 -2 13 3 13 6 1 16 2 21 3 6 0 14 7 19 14 4 7 14 12
22 10 9 -2 14 5 13 22 -2 23 -1 23 12 5 12 -17 14 -17 14 -2 0 9 5 17 11 17 5
0 7 5 3 11 -4 8 0 8 15 0 18 -10 22 -9 30 12 6 16 20 26 40 30 22 5 29 11 25
22 -3 8 -2 15 4 15 6 0 13 -6 15 -12 4 -10 6 -10 6 0 1 8 6 10 14 6 7 -5 7 -2
-2 10 -8 9 -10 16 -5 15 23 -4 35 2 28 14 -5 7 -2 7 10 -2 14 -12 17 -12 14
-1 -2 8 3 14 11 15 8 0 16 6 19 14 3 9 0 11 -8 6 -9 -5 -11 -4 -6 4 6 8 11 9
20 2 15 -13 52 21 42 38 -4 5 -1 13 5 17 7 4 9 3 5 -4 -3 -6 -2 -13 4 -17 5
-3 10 -1 10 5 0 6 5 8 13 4 7 -5 7 -2 -2 10 -8 9 -10 16 -5 15 19 -6 53 13 59
32 6 17 9 18 22 7 14 -12 15 -11 5 9 -17 31 -15 40 4 17 8 -10 13 -13 9 -6 -3
6 -1 12 5 12 6 0 8 5 4 12 -5 7 -2 9 8 5 10 -3 25 4 39 19 21 23 22 24 4 19
-20 -7 -20 -6 -1 9 24 19 40 21 30 3 -4 -7 -2 -7 7 2 11 10 11 15 2 18 -7 3
-13 9 -13 14 0 4 7 5 17 2 12 -5 14 -3 8 8 -8 12 -6 12 8 0 15 -12 17 -12 11
4 -5 12 -4 16 3 12 10 -6 27 27 24 46 -1 5 3 6 9 2 8 -5 7 -12 -2 -23 -12 -15
-11 -16 4 -4 9 8 14 20 11 28 -4 10 0 12 13 7 16 -6 17 -5 6 9 -10 13 -10 18
-1 24 8 4 9 3 5 -4 -4 -7 -2 -12 5 -12 6 0 9 8 6 20 -3 10 -2 19 2 18 27 -3
40 4 34 19 -4 11 -3 14 5 9 7 -4 12 -1 12 9 0 10 5 13 12 9 8 -5 9 -2 5 10 -4
10 -3 15 3 11 6 -3 10 -1 10 5 0 6 5 8 13 4 7 -5 6 0 -3 11 -8 10 -10 16 -3
12 6 -4 14 -3 18 3 4 6 10 8 15 5 4 -3 6 4 3 15 -4 16 -2 19 11 14 9 -3 16 -2
16 4 0 6 -6 13 -12 15 -10 4 -10 6 0 6 7 1 10 6 6 12 -4 7 2 6 17 -2 23 -12
23 -11 9 6 -13 17 -13 18 2 13 16 -7 19 7 5 29 -5 8 1 10 18 8 22 -2 23 0 13
13 -11 13 -10 15 4 9 13 -4 15 -2 11 10 -5 12 -3 14 8 8 12 -7 12 -6 1 7 -10
13 -10 18 -1 24 8 5 9 3 4 -5 -5 -10 -3 -10 13 0 13 8 19 21 17 40 -2 25 0 27
16 19 16 -9 17 -7 9 20 -6 19 -5 32 2 36 6 4 8 2 5 -3 -4 -6 -1 -13 7 -16 10
-4 12 0 8 15 -4 16 -2 19 9 13 12 -8 12 -6 0 8 -12 15 -12 17 4 11 15 -6 16
-4 5 17 -7 13 -9 21 -5 17 4 -4 14 0 22 8 8 8 18 12 22 10 4 -3 7 4 7 14 0 10
-5 17 -11 16 -5 -2 -7 -1 -2 1 4 3 5 9 2 14 -4 5 2 6 12 2 15 -6 16 -4 5 9
-10 13 -10 18 -1 24 8 4 9 3 5 -4 -4 -7 -3 -12 3 -12 5 0 13 9 16 20 3 11 11
20 17 20 6 0 8 3 5 6 -4 4 -14 1 -23 -7 -16 -13 -16 -12 -4 8 8 12 18 20 22
17 4 -3 5 3 1 12 -5 13 -3 15 8 9 12 -8 12 -6 0 8 -12 15 -12 17 3 11 18 -7
19 15 1 28 -6 4 -2 8 8 8 9 0 17 7 17 16 0 9 -5 12 -12 8 -9 -5 -9 -3 1 9 12
15 31 15 31 1 0 -3 -5 -2 -12 2 -7 5 -8 3 -4 -5 11 -17 19 -7 22 26 2 20 1 24
-6 13 -7 -11 -8 -6 -6 15 2 16 9 31 17 33 12 3 12 2 0 -6 -8 -6 -9 -12 -3 -16
15 -9 22 20 9 34 -9 10 -9 11 2 5 11 -6 13 -4 8 9 -6 14 -3 17 8 12 10 -3 13
-2 10 5 -4 5 -1 18 6 27 11 14 11 15 -1 4 -8 -6 -18 -12 -24 -12 -5 0 3 11 18
24 24 20 26 27 17 44 -10 19 -9 21 5 15 13 -5 15 -3 8 8 -4 8 -10 23 -11 34
-2 16 -1 17 6 5 5 -8 7 -19 4 -25 -4 -5 -2 -6 3 -2 5 5 9 12 9 15 0 4 4 13 9
21 6 9 5 12 -1 8 -6 -4 -13 -1 -16 7 -6 16 1 26 17 26 6 0 4 -5 -4 -11 -13 -9
-13 -10 0 -6 17 4 20 35 5 56 -8 12 -6 13 7 8 10 -3 17 -3 17 1 -1 4 0 9 1 12
6 16 5 48 -2 44 -9 -6 -5 32 5 42 12 12 8 26 -5 19 -7 -4 -5 0 5 8 11 9 14 18
8 21 -11 7 -4 37 7 33 4 -1 8 3 10 8 1 6 -2 10 -7 10 -5 0 -13 4 -18 8 -4 5
-3 8 2 7 22 -5 27 1 15 15 -11 13 -10 14 3 10 8 -4 18 -1 23 6 4 7 3 10 -4 5
-6 -3 -13 -2 -17 4 -3 5 -1 10 4 10 6 0 11 5 11 11 0 5 -4 8 -9 4 -5 -3 -13 0
-17 6 -5 8 -3 9 6 4 10 -6 12 -3 8 13 -4 12 -1 25 4 29 7 3 8 1 4 -5 -5 -8 -2
-10 8 -6 12 5 13 9 3 19 -7 7 -16 10 -21 7 -5 -3 -6 0 -2 7 4 6 11 9 16 6 4
-3 10 2 13 10 4 8 1 12 -7 9 -7 -3 -12 4 -12 20 0 17 4 22 16 18 12 -4 13 -2
3 9 -17 17 -17 34 0 23 7 -5 4 -1 -6 9 -19 16 -19 17 -1 17 18 1 18 1 2 14
-21 15 -14 27 10 19 10 -4 7 3 -8 16 -14 12 -19 20 -12 16 23 -12 31 5 16 33
-18 35 -18 43 4 35 14 -5 14 -3 -3 11 -11 10 -14 15 -8 11 9 -4 11 -1 7 9 -3
9 -11 13 -18 9 -8 -5 -8 -3 0 8 6 8 14 24 16 36 5 17 2 20 -11 15 -14 -5 -14
-4 -2 11 9 11 10 17 2 17 -6 0 -11 8 -11 18 0 14 2 15 10 2 8 -13 10 -12 10 3
0 9 -4 17 -9 17 -14 0 -21 29 -9 36 6 4 8 3 4 -4 -3 -6 -2 -13 3 -16 10 -7 9
20 -2 30 -12 12 -8 26 5 18 7 -4 8 -3 4 5 -4 6 -11 9 -16 6 -5 -3 -12 0 -16 6
-4 8 -3 9 4 5 7 -4 12 -2 12 4 0 6 6 8 13 5 6 -4 2 2 -10 13 -16 14 -19 22
-10 31 8 8 6 11 -9 11 -15 0 -16 2 -4 9 8 6 18 7 24 4 5 -3 6 -1 2 5 -4 7 -13
12 -21 12 -7 0 -16 7 -19 16 -5 14 -4 15 9 4 9 -7 18 -10 22 -6 3 3 1 6 -5 6
-7 0 -12 12 -12 26 0 16 -4 23 -12 18 -6 -4 -8 -3 -4 4 3 5 3 12 -1 15 -5 2
-2 2 5 1 17 -5 15 13 -3 20 -8 3 -12 12 -9 21 3 8 11 12 17 8 6 -3 7 -1 3 5
-4 6 -14 8 -24 5 -9 -3 -14 -3 -10 2 4 4 2 15 -4 24 -10 13 -10 14 2 4 19 -17
35 -17 21 0 -6 8 -7 18 -3 22 4 5 1 4 -7 0 -11 -6 -13 -4 -8 8 4 10 1 17 -6
17 -8 0 -6 4 3 10 12 8 12 10 -5 11 -11 0 -15 3 -9 5 13 6 -3 63 -21 76 -6 5
-5 8 4 8 9 0 8 5 -6 18 -10 9 -14 14 -9 10 21 -17 28 -7 8 10 -17 15 -19 21
-9 32 9 10 9 11 0 6 -8 -5 -13 -1 -13 9 0 10 -5 13 -12 9 -9 -6 -9 -3 0 9 14
17 8 42 -8 32 -5 -3 -12 0 -16 6 -4 8 -3 9 4 5 7 -4 12 -2 12 3 0 6 -4 11 -10
11 -5 0 -10 5 -10 11 0 5 5 7 10 4 6 -3 10 -1 10 4 0 6 -7 11 -15 11 -9 0 -12
6 -9 15 7 16 -20 48 -31 37 -4 -4 -3 2 3 14 11 20 8 26 -50 93 -10 12 -9 14 5
8 9 -3 17 -2 17 3 0 6 -6 10 -14 10 -8 0 -18 5 -22 12 -4 7 -3 8 5 4 8 -6 8
-1 -1 18 -6 14 -15 26 -20 26 -4 0 -8 9 -8 20 0 11 -5 20 -11 20 -6 0 -8 7 -5
15 4 10 -2 19 -17 25 -12 5 -16 9 -9 9 10 1 10 5 -2 17 -9 8 -17 20 -17 25 -1
5 -2 15 -3 22 -1 6 -10 10 -21 9 -17 -3 -17 -2 -5 15 8 10 11 15 6 11 -10 -8
-36 15 -36 32 0 16 -26 41 -34 32 -4 -3 -4 1 0 11 3 10 1 17 -6 17 -6 0 -9 4
-5 9 3 5 -5 17 -17 26 -13 8 -22 18 -20 20 8 17 0 26 -13 15 -13 -11 -14 -10
-9 5 6 14 4 16 -6 10 -8 -5 -11 -4 -7 3 9 14 -3 43 -14 36 -5 -3 -9 3 -9 13 0
15 -2 16 -10 3 -8 -12 -10 -11 -10 5 0 11 -9 27 -19 34 -11 8 -17 20 -14 28 4
9 0 11 -13 6 -11 -4 -15 -3 -10 5 3 6 0 14 -7 19 -8 4 -22 21 -32 36 -11 18
-24 26 -33 22 -12 -5 -13 -3 -2 10 7 9 9 15 4 13 -5 -2 -10 1 -11 7 -1 5 -11
13 -23 17 -13 5 -19 13 -15 20 4 7 -1 4 -10 -7 -15 -19 -16 -19 -13 5 2 16 -2
24 -9 22 -7 -1 -13 4 -13 11 0 7 -17 29 -37 48 -21 18 -30 24 -20 12 14 -16
15 -23 6 -29 -7 -4 -10 -3 -6 3 3 5 -5 21 -18 35 -13 14 -21 30 -17 34 4 5 -2
2 -12 -6 -13 -10 -17 -10 -12 -2 4 7 2 12 -4 12 -6 0 -8 5 -5 10 3 6 -4 10
-17 10 -18 0 -20 2 -8 10 13 8 12 10 -2 10 -10 0 -18 5 -18 10 0 6 -11 15 -25
22 -13 6 -22 15 -19 19 3 5 -2 6 -10 3 -11 -4 -16 0 -16 10 0 9 -8 16 -21 16
-11 0 -18 4 -15 9 6 9 -22 26 -36 23 -5 -1 -8 3 -8 9 0 5 -4 7 -10 4 -5 -3
-10 1 -10 9 0 8 -5 18 -12 22 -7 4 -8 3 -4 -4 12 -20 -1 -13 -34 18 -18 17
-37 30 -42 30 -6 0 -17 8 -25 18 -9 11 -12 12 -8 2 4 -8 -4 -3 -18 12 -19 20
-27 24 -37 15 -9 -9 -11 -9 -7 -1 8 14 -20 27 -35 17 -6 -3 -9 -2 -6 3 3 5 0
14 -7 21 -11 10 -15 10 -18 0 -4 -9 -6 -9 -6 1 -1 7 -6 10 -11 7 -6 -4 -10 -3
-9 2 3 20 -2 24 -17 13 -8 -8 -14 -9 -13 -4 1 5 1 16 0 24 -1 13 -2 13 -11 0
-6 -10 -10 -11 -10 -3 0 7 -14 20 -31 29 -17 8 -28 11 -25 5 4 -6 2 -11 -3
-11 -6 0 -11 6 -11 14 0 8 -7 17 -16 20 -12 5 -14 3 -8 -7 5 -7 1 -4 -8 6 -10
11 -18 14 -18 8 0 -8 -4 -8 -14 1 -8 7 -11 18 -8 23 3 6 -3 3 -13 -5 -15 -12
-17 -12 -10 -1 6 11 2 13 -18 9 -15 -3 -24 -2 -22 2 3 4 -2 13 -10 20 -12 10
-15 10 -15 -1 -1 -10 -5 -8 -15 5 -8 10 -21 16 -29 13 -8 -3 -17 1 -20 9 -3 8
-10 14 -16 14 -6 0 -9 -4 -6 -8 3 -5 -1 -9 -9 -9 -8 0 -12 4 -10 8 3 3 -2 12
-10 19 -12 10 -18 10 -31 0 -12 -11 -15 -11 -12 1 2 9 -4 13 -16 11 -11 -2
-15 1 -11 7 8 14 -1 14 -28 -1 -20 -10 -21 -10 -9 5 12 14 11 16 -7 12 -12 -2
-21 0 -21 6 0 5 -5 9 -11 9 -5 0 -7 -6 -4 -12 4 -7 1 -6 -7 2 -7 9 -21 14 -30
12 -10 -2 -18 2 -18 8 0 7 -8 9 -21 5 -13 -5 -19 -3 -15 3 3 5 -5 12 -19 14
-13 3 -26 0 -29 -6 -2 -6 -5 -2 -5 8 -1 20 -1 20 -17 0 -8 -10 -13 -14 -10 -7
4 6 2 14 -4 18 -5 3 -10 0 -10 -7 0 -8 -5 -6 -11 5 -8 14 -14 15 -31 6 -16 -9
-19 -8 -13 2 6 9 0 11 -26 6 -20 -4 -29 -3 -21 2 11 6 10 10 -3 15 -22 8 -27
8 -21 -2 3 -5 -1 -9 -9 -9 -8 0 -12 4 -9 9 3 4 0 8 -5 8 -6 0 -11 -5 -11 -11
0 -6 -8 -1 -18 11 -16 19 -22 21 -40 11 -14 -8 -22 -8 -22 -1 0 5 -5 10 -11
10 -5 0 -7 -4 -4 -10 3 -5 1 -10 -4 -10 -6 0 -11 4 -11 9 0 5 -17 9 -37 9 -59
0 -65 1 -59 11 7 11 -13 9 -31 -2 -8 -5 -13 -3 -13 5 0 10 -2 10 -9 -1 -7 -11
-9 -11 -13 0 -5 12 -9 12 -28 1 -12 -8 -19 -9 -15 -3 3 6 0 11 -9 11 -8 0 -17
-6 -19 -12 -3 -7 -6 -4 -6 6 -1 20 -1 20 -16 0 -11 -14 -14 -15 -9 -2 6 17
-18 20 -33 3 -4 -4 -2 -5 6 0 10 5 12 4 7 -4 -4 -6 -12 -9 -17 -5 -5 3 -7 9
-4 14 3 4 -2 10 -10 14 -8 3 -17 1 -20 -4 -3 -5 -13 -6 -22 -3 -11 4 -14 3 -9
-5 4 -8 2 -10 -7 -6 -8 3 -18 0 -22 -6 -5 -8 -11 -8 -21 1 -7 6 -21 9 -29 5
-11 -4 -14 -2 -9 6 5 7 2 9 -9 5 -9 -3 -18 -1 -21 6 -3 8 -5 9 -5 1z m569 -54
c0 -5 -2 -10 -4 -10 -3 0 -8 5 -11 10 -3 6 -1 10 4 10 6 0 11 -4 11 -10z
m2121 -1587 c13 -16 12 -17 -3 -4 -10 7 -18 15 -18 17 0 8 8 3 21 -13z m-5396
-522 c3 -5 2 -12 -3 -15 -5 -3 -9 1 -9 9 0 17 3 19 12 6z m-14 -78 c13 -16 12
-17 -3 -4 -10 7 -18 15 -18 17 0 8 8 3 21 -13z m-6 -22 c3 -5 2 -12 -3 -15 -5
-3 -9 1 -9 9 0 17 3 19 12 6z m-5 -35 c0 -3 -4 -8 -10 -11 -5 -3 -10 -1 -10 4
0 6 5 11 10 11 6 0 10 -2 10 -4z m-15 -204 c-3 -3 -11 0 -18 7 -9 10 -8 11 6
5 10 -3 15 -9 12 -12z m1 -368 c1 -9 0 -13 -4 -10 -3 4 -7 14 -8 22 -1 9 0 13
4 10 3 -4 7 -14 8 -22z m5599 -303 c3 -5 2 -12 -3 -15 -5 -3 -9 1 -9 9 0 17 3
19 12 6z m-345 -811 c0 -5 -5 -10 -11 -10 -5 0 -7 5 -4 10 3 6 8 10 11 10 2 0
4 -4 4 -10z m-426 -531 c-3 -5 -10 -7 -15 -3 -5 3 -7 10 -3 15 3 5 10 7 15 3
5 -3 7 -10 3 -15z m-174 -144 c0 -2 -6 -8 -13 -14 -10 -8 -14 -7 -14 2 0 8 6
14 14 14 7 0 13 -1 13 -2z m-540 -330 c0 -2 -6 -8 -13 -14 -10 -8 -14 -7 -14
2 0 8 6 14 14 14 7 0 13 -1 13 -2z m-344 -147 c3 -4 -1 -5 -10 -4 -8 1 -18 5
-22 8 -3 4 1 5 10 4 8 -1 18 -5 22 -8z m-1716 -44 c0 -8 -19 -13 -24 -6 -3 5
1 9 9 9 8 0 15 -2 15 -3z m1508 -19 c-3 -3 -9 2 -12 12 -6 14 -5 15 5 6 7 -7
10 -15 7 -18z m-48 -7 c0 -4 -4 -8 -9 -8 -6 0 -12 4 -15 8 -3 5 1 9 9 9 8 0
15 -4 15 -9z m-1269 -25 c13 -17 13 -17 -6 -3 -11 8 -22 16 -24 17 -2 2 0 3 6
3 6 0 17 -8 24 -17z m1067 -18 c-3 -3 -9 2 -12 12 -6 14 -5 15 5 6 7 -7 10
-15 7 -18z"/>
<path d="M3241 5871 c-8 -6 -9 -11 -3 -15 6 -3 14 -1 17 5 9 14 2 20 -14 10z"/>
<path d="M1435 5280 c4 -6 11 -8 16 -5 14 9 11 15 -7 15 -8 0 -12 -5 -9 -10z"/>
<path d="M597 2199 c7 -7 15 -10 18 -7 3 3 -2 9 -12 12 -14 6 -15 5 -6 -5z"/>
<path d="M1056 1515 c15 -14 29 -25 32 -25 3 0 -5 11 -18 25 -13 14 -27 25
-32 25 -5 0 3 -11 18 -25z"/>
<path d="M1250 1326 c0 -8 7 -17 16 -20 23 -9 24 -4 2 17 -14 13 -18 14 -18 3z"/>
<path d="M1562 1075 c15 -16 20 -17 30 -6 11 11 10 13 0 7 -7 -4 -21 -2 -30 5
-15 12 -15 11 0 -6z"/>
<path d="M1616 1042 c-3 -5 1 -9 9 -9 8 0 12 4 9 9 -3 4 -7 8 -9 8 -2 0 -6 -4
-9 -8z"/>
<path d="M1993 845 c0 -8 4 -12 9 -9 5 3 6 10 3 15 -9 13 -12 11 -12 -6z"/>
<path d="M4305 779 c-4 -6 -5 -12 -2 -15 2 -3 7 2 10 11 7 17 1 20 -8 4z"/>
<path d="M2538 663 c6 -2 9 -10 6 -15 -4 -7 -2 -8 5 -4 13 9 5 26 -12 25 -9 0
-8 -2 1 -6z"/>
<path d="M3755 630 c-3 -5 -1 -10 4 -10 6 0 11 5 11 10 0 6 -2 10 -4 10 -3 0
-8 -4 -11 -10z"/>
</g>
</svg>
